<?xml version="1.0" encoding="UTF-8" standalone="no"?>
<!-- Created with Sodipodi ("http://www.sodipodi.com/") -->

<svg
   xmlns:dc="http://purl.org/dc/elements/1.1/"
   xmlns:cc="http://creativecommons.org/ns#"
   xmlns:rdf="http://www.w3.org/1999/02/22-rdf-syntax-ns#"
   xmlns:svg="http://www.w3.org/2000/svg"
   xmlns="http://www.w3.org/2000/svg"
   xmlns:sodipodi="http://sodipodi.sourceforge.net/DTD/sodipodi-0.dtd"
   xmlns:inkscape="http://www.inkscape.org/namespaces/inkscape"
   xml:space="preserve"
   width="225pt"
   height="188pt"
   style="shape-rendering:geometricPrecision; text-rendering:geometricPrecision; image-rendering:optimizeQuality; fill-rule:evenodd"
   viewBox="0 0 8268 11692"
   id="svg644"
   sodipodi:version="0.34"
   sodipodi:docname="libra-black.svg"
   version="1.1"
   inkscape:version="0.91 r13725"><metadata
     id="metadata8"><rdf:RDF><cc:Work
         rdf:about=""><dc:format>image/svg+xml</dc:format><dc:type
           rdf:resource="http://purl.org/dc/dcmitype/StillImage" /><dc:title></dc:title></cc:Work></rdf:RDF></metadata><sodipodi:namedview
     id="base"
     showgrid="false"
     inkscape:zoom="1.0042553"
     inkscape:cx="140.625"
     inkscape:cy="117.5"
     inkscape:window-width="1280"
     inkscape:window-height="704"
     inkscape:window-x="0"
     inkscape:window-y="1"
     inkscape:window-maximized="1"
     inkscape:current-layer="svg644" /><defs
     id="defs645"><style
       type="text/css"
       id="style646"><![CDATA[
    .fil0 {fill:#000000}
   ]]></style></defs><g
     id="Layer 1"
     transform="matrix(6.484284,0,0,6.473976,-20499.79,-29016.36)"><path
       class="fil0"
       d="M2720 6288l0 -200 2158 0 0 200 -2158 0zm853 -789l0 187 -853 0 0 -201 598 0c-109,-111 -163,-236 -163,-374 0,-172 64,-319 191,-443 127,-124 278,-186 454,-186 175,0 326,62 453,186 128,124 191,271 191,443 0,138 -54,263 -163,374l597 0 0 201 -853 0 0 -187c145,-94 218,-220 218,-378 0,-120 -44,-222 -131,-308 -88,-87 -192,-130 -312,-130 -122,0 -226,43 -313,130 -87,86 -131,188 -131,308 0,158 72,284 217,378z"
       id="path648" /></g><text
     xml:space="preserve"
     style="font-style:normal;font-weight:normal;font-size:1990.12768555px;line-height:125%;font-family:sans-serif;letter-spacing:0px;word-spacing:0px;fill:#000000;fill-opacity:1;stroke:none;stroke-width:1px;stroke-linecap:butt;stroke-linejoin:miter;stroke-opacity:1"
     x="258.20547"
     y="9809.8115"
     id="text3336"
     sodipodi:linespacing="125%"><tspan
       sodipodi:role="line"
       id="tspan3338"
       x="258.20547"
       y="9809.8115"
       style="font-style:normal;font-variant:normal;font-weight:500;font-stretch:normal;font-family:Futura;-inkscape-font-specification:'Futura Medium'">L I B R A</tspan></text>
</svg>